# xmcd CD database file
# Generated: Fr Aug 27 13:06:02 2004 by KSCD
# 
# Track frame offsets:
#       150
#       20650
#       41610
#       79753
#       101160
#       122838
#       137343
#       160235
#       195373
#       213425
#
# Disc length: 3262 seconds
#
# Revision: 9
# Processed by: cddbd v1.5.1PL0 Copyright (c) Steve Scherf et al.
# Submitted via: Kscd 1.3.3
#
DISCID=810cbc0a
DTITLE=Guy, Buddy - Damn Right, I've Got The Blues
DYEAR=1991
DGENRE=
TTITLE0=Damn Right, I've Got The Blues
TTITLE1=Where Is The Next One Coming From
TTITLE2=Five Long Years
TTITLE3=Mustang Sally
TTITLE4=There Is Something On Your Mind
TTITLE5=Early In The Morning
TTITLE6=Too Broke To Spend The Night
TTITLE7=Black Night
TTITLE8=Let Me Love You Baby
TTITLE9=Rememberin' Stevie
EXTD=YEAR: 1991
EXTT0=
EXTT1=
EXTT2=
EXTT3=
EXTT4=
EXTT5=
EXTT6=
EXTT7=
EXTT8=
EXTT9=
PLAYORDER=
